<svg width="24" height="31" viewBox="0 0 24 31" fill="none" xmlns="http://www.w3.org/2000/svg">
<path d="M15.9979 26.6805C16.0532 26.6518 16.1093 26.6211 16.1661 26.5897C16.1326 26.6376 16.0968 26.684 16.0628 26.7319C16.0414 26.7147 16.0193 26.6978 15.9979 26.6805ZM7.91886 19.9871C8.27263 19.7368 8.59061 19.4331 8.77026 19.0604C8.99381 18.5953 9.22106 18.1321 9.44829 17.669C9.35164 18.7855 9.21073 19.899 9.02481 21.0097C8.85881 20.861 8.69023 20.7141 8.52607 20.5634C8.32134 20.3755 8.11917 20.1827 7.91886 19.9871ZM3.87511 7.14976C3.86478 7.16932 4.3174 6.51445 4.24436 6.42779C4.34175 6.4067 4.45206 6.40133 4.56899 6.40823C4.14514 8.35601 3.72128 10.3038 3.29742 12.2516C3.28562 12.1925 3.27087 12.1343 3.26018 12.0748C2.9717 10.4484 3.07019 8.61597 3.87511 7.14976ZM17.1385 8.80001C16.7575 11.4495 16.3517 14.0951 15.8887 16.7292C15.646 16.8576 15.3889 17.011 15.1432 17.172C15.1853 16.633 15.2188 16.0931 15.2432 15.5525C15.463 15.3535 15.6102 15.1714 15.6294 15.0406C15.9481 12.9015 16.4546 10.8157 17.1385 8.80001ZM14.1365 23.857C14.1133 24.2876 14.0826 24.7186 14.0428 25.1495C13.7713 24.9371 13.5013 24.7236 13.2309 24.5104C13.5887 24.2987 13.9174 24.0671 14.1365 23.857ZM10.3292 21.2417C10.7951 21.0143 11.6388 20.5841 11.9501 20.0324C11.845 21.0841 11.7151 22.1335 11.5749 23.183C10.9102 22.6412 10.2521 22.0917 9.60653 21.5289C9.92525 21.4342 10.2573 21.277 10.3292 21.2417ZM5.19868 16.1015C5.71107 14.7239 6.27694 13.3746 6.89114 12.0503C6.81478 12.8309 6.70338 13.6116 6.5905 14.3949C6.42007 15.5839 6.24817 16.7733 6.07627 17.9623C5.69004 17.4761 5.32889 16.9711 4.99985 16.4455C5.08174 16.3366 5.15368 16.2235 5.19868 16.1015ZM10.0164 10.8134C10.2366 11.1692 10.4461 11.5346 10.6435 11.9077C10.3041 12.1293 10.0068 12.3543 9.83489 12.52C9.90977 11.9506 9.97137 11.3812 10.0164 10.8134ZM7.18036 7.50291C7.12835 7.54547 7.08334 7.58381 7.04461 7.61908C7.05862 7.55543 7.07228 7.49216 7.08593 7.42851C7.11802 7.45267 7.14864 7.47837 7.18036 7.50291ZM23.8693 6.82769C23.6878 4.94355 23.4779 0.582129 21.2018 0.121637C20.3172 -0.0574207 18.8413 0.972059 18.3511 1.69558C16.4911 4.44357 15.0233 7.42814 13.983 10.576C12.7683 8.0535 11.0574 5.69238 8.74445 4.74188C5.61037 3.45396 1.74956 6.26484 0.551776 9.21949C-1.00567 13.0614 0.980061 17.4512 3.4435 20.3276C6.42819 23.8129 10.3886 26.4942 13.9521 29.3158C13.9026 29.3687 13.8554 29.4232 13.8052 29.4753C13.319 29.983 13.5743 30.1639 14.142 30.0823C14.7168 29.9991 15.3929 29.5846 15.9086 29.1506C16.7246 28.6153 17.4727 27.8492 17.3326 27.7369C17.3167 27.7242 17.3001 27.7112 17.2842 27.6985C20.4556 24.0112 22.642 19.4852 23.5395 14.6089C24.0106 12.048 24.1197 9.42193 23.8693 6.82769Z" fill="white"/>
</svg>
